/* XPM */
static char* fsthost_xpm[] = {
"32 32 7 1",
" 	c None",
".	c #000000",
"+	c #009999",
"@	c #00CCCC",
"#	c #00FFFF",
"$	c #666666",
"%	c #444444",
"................................",
".++@@#@@@++++@@@..#@@@+++++$$%%.",
".+@@#.#@@@++@@@...#@@@+++++$$%%.",
".+@@#..#@@@+@@#.#..#@@@++++$$%%.",
".+@@#...#@@+@@#.##.#@@@++++$$%%.",
".+@@#....#@@+@#.##.#@@@++++$$%%.",
".+@@#.#...#@+@#.#..#@@@++++$$%%.",
".+@@#.##..#@+@#.#..#@@@+++$$$%%.",
".+@@#.#@#.#@+@@...#@@@++++$$$%%.",
".@@@#.##.#@@+@@...#@@@++++$$$$%.",
".@@##.#@#@@+@@#..#@@@++++++$$$$.",
".@#...#@@@+@@#..#@@@++++++++$$$.",
".#....#@@+@@#...#@@@+++++++++$$.",
".#....#@+@@#....#@@@++++++++++$.",
".@#..#@@@@#...#.#@@@@+++@@@++++.",
".@@##@@@@@#...#.###@@@+@@@@@+++.",
".@@@@@@+@#...##....#@@+@@#@@@++.",
".++@@@+@@#...#......#@@@#.#@@@+.",
".++++++@@#...#...#..#@@@#..#@@@.",
".++++++@@#...#...##..#@@#...#@@.",
".++++++@@#...#...##..#@@#....#@.",
".$$$++++@@#..##...#..#@@#.#...#.",
".$$$$+++@@#..####.#..#@@#.##..#.",
".%$$$++++@@#..###.#.#@@@#.#@#.#.",
".%%$$$++++@@#...#..#@@@@#.##.#@.",
".%%$$$++++@@@##...#@@@@##.#@#@@.",
".%%%$$+++@@@#####.#@@@#...#@@@@.",
".%%%$$+++@@#...##.#@@#....#@@@+.",
".%%%$$+++@@#...#..#@@#....#@+++.",
".%%%$$+++@@#.##..#@@+@#..#@@@++.",
".%%%$$+++@@#....#@@++@@##@@@+++.",
"................................"};
